<?xml version="1.0" encoding="UTF-8"?>
<svg xmlns="http://www.w3.org/2000/svg" xmlns:xlink="http://www.w3.org/1999/xlink" width="64px" height="64px" viewBox="0 0 32 32" version="1.1">
<g id="surface1">
<path style=" stroke:none;fill-rule:nonzero;fill:rgb(6.27451%,66.666667%,66.666667%);fill-opacity:0.701961;" d="M 5 0 L 27 0 C 29.761719 0 32 2.238281 32 5 L 32 27 C 32 29.761719 29.761719 32 27 32 L 5 32 C 2.238281 32 0 29.761719 0 27 L 0 5 C 0 2.238281 2.238281 0 5 0 Z M 5 0 "/>
<path style=" stroke:none;fill-rule:evenodd;fill:rgb(100%,100%,100%);fill-opacity:1;" d="M 25.3125 9.792969 L 24.242188 9.539062 L 21.34375 12.421875 L 19.699219 10.75 L 22.527344 7.78125 L 22.28125 6.695312 C 21.683594 6.492188 21.058594 6.386719 20.425781 6.378906 C 19.742188 6.371094 19.058594 6.5 18.425781 6.765625 C 17.8125 7.042969 17.257812 7.433594 16.792969 7.921875 C 16.277344 8.410156 15.867188 9.003906 15.589844 9.660156 C 15.058594 10.96875 15.058594 12.429688 15.589844 13.738281 C 12.722656 16.558594 9.894531 19.414062 7.101562 22.308594 C 6.8125 22.6875 6.675781 23.160156 6.710938 23.632812 C 6.738281 24.144531 6.96875 24.621094 7.351562 24.964844 C 7.519531 25.148438 7.722656 25.304688 7.949219 25.414062 C 8.183594 25.519531 8.4375 25.578125 8.691406 25.589844 C 9.125 25.582031 9.542969 25.414062 9.863281 25.125 C 11.992188 23.121094 16.070312 19.007812 18.386719 16.59375 C 19.015625 16.863281 19.691406 17 20.375 17 C 21.058594 16.996094 21.738281 16.859375 22.371094 16.59375 C 23.003906 16.324219 23.578125 15.933594 24.054688 15.441406 C 25.039062 14.4375 25.585938 13.089844 25.582031 11.6875 C 25.597656 11.042969 25.507812 10.402344 25.3125 9.792969 Z M 9.03125 24.152344 C 8.980469 24.199219 8.917969 24.230469 8.847656 24.246094 C 8.78125 24.257812 8.710938 24.257812 8.640625 24.246094 C 8.570312 24.238281 8.503906 24.210938 8.445312 24.167969 C 8.378906 24.132812 8.328125 24.078125 8.289062 24.019531 C 8.09375 23.820312 7.914062 23.445312 8.09375 23.238281 C 9.980469 21.234375 13.859375 17.316406 16.285156 14.921875 C 16.421875 15.105469 16.570312 15.277344 16.734375 15.441406 C 16.898438 15.609375 17.070312 15.765625 17.257812 15.910156 C 14.910156 18.316406 11.085938 22.183594 9.03125 24.152344 Z M 24.320312 11.6875 C 24.324219 12.738281 23.914062 13.75 23.175781 14.503906 C 22.441406 15.222656 21.453125 15.628906 20.421875 15.628906 C 19.390625 15.628906 18.402344 15.222656 17.667969 14.503906 C 17.128906 13.941406 16.757812 13.234375 16.605469 12.472656 C 16.449219 11.707031 16.515625 10.917969 16.792969 10.1875 C 16.976562 9.695312 17.265625 9.242188 17.636719 8.867188 C 18.003906 8.488281 18.449219 8.191406 18.941406 7.996094 C 19.410156 7.800781 19.910156 7.703125 20.417969 7.703125 L 20.765625 7.703125 L 18.265625 10.277344 L 18.265625 11.234375 L 20.871094 13.828125 L 21.78125 13.828125 L 24.320312 11.332031 Z M 9.453125 14.195312 L 11.558594 14.195312 L 12.53125 15.183594 L 13.460938 14.253906 L 12.546875 13.324219 L 12.546875 13.265625 L 12.625 10.996094 L 12.324219 10.394531 L 8.390625 7.808594 L 7.578125 7.898438 L 6.433594 9.066406 L 6.34375 9.890625 L 8.871094 13.902344 Z M 8.15625 9.203125 L 11.335938 11.296875 L 11.285156 12.839844 L 9.804688 12.839844 L 7.753906 9.59375 Z M 17.925781 18.773438 L 18.851562 17.847656 L 23.121094 22.226562 C 23.480469 22.605469 23.683594 23.105469 23.683594 23.628906 C 23.683594 24.148438 23.480469 24.652344 23.121094 25.03125 C 22.851562 25.308594 22.503906 25.496094 22.125 25.574219 C 21.746094 25.652344 21.351562 25.613281 20.992188 25.460938 C 20.765625 25.363281 20.558594 25.214844 20.390625 25.03125 L 16.070312 20.625 L 17.003906 19.691406 L 21.3125 24.085938 C 21.371094 24.148438 21.441406 24.199219 21.523438 24.230469 C 21.679688 24.292969 21.855469 24.292969 22.015625 24.230469 C 22.097656 24.199219 22.167969 24.148438 22.226562 24.085938 C 22.285156 24.023438 22.332031 23.953125 22.363281 23.875 C 22.394531 23.792969 22.410156 23.707031 22.414062 23.621094 C 22.410156 23.535156 22.394531 23.449219 22.363281 23.367188 C 22.335938 23.289062 22.289062 23.21875 22.226562 23.160156 Z M 17.925781 18.773438 "/>
</g>
</svg>
