<?xml version="1.0" encoding="UTF-8"?>
<svg xmlns="http://www.w3.org/2000/svg" xmlns:xlink="http://www.w3.org/1999/xlink" width="64px" height="64px" viewBox="0 0 25 32" version="1.1">
<g id="surface1">
<path style=" stroke:none;fill-rule:nonzero;fill:rgb(24.313725%,66.27451%,46.666667%);fill-opacity:0.701961;" d="M 3.90625 3.5 L 21.09375 3.5 C 23.25 3.5 25 5.25 25 7.40625 L 25 24.59375 C 25 26.75 23.25 28.5 21.09375 28.5 L 3.90625 28.5 C 1.75 28.5 0 26.75 0 24.59375 L 0 7.40625 C 0 5.25 1.75 3.5 3.90625 3.5 Z M 3.90625 3.5 "/>
<path style=" stroke:none;fill-rule:nonzero;fill:rgb(100%,100%,100%);fill-opacity:1;" d="M 20.03125 17.074219 C 20.03125 17.179688 19.988281 17.285156 19.914062 17.359375 C 19.839844 17.433594 19.734375 17.476562 19.628906 17.476562 C 19.523438 17.476562 19.417969 17.433594 19.34375 17.359375 C 19.269531 17.285156 19.226562 17.179688 19.226562 17.074219 C 19.222656 15.328125 18.53125 13.65625 17.296875 12.421875 C 16.0625 11.191406 14.390625 10.496094 12.648438 10.496094 C 11.042969 10.496094 9.507812 11.132812 8.378906 12.269531 C 7.242188 13.398438 6.605469 14.933594 6.605469 16.539062 C 6.605469 17.996094 7.1875 19.398438 8.21875 20.429688 C 9.25 21.460938 10.652344 22.039062 12.109375 22.042969 C 13.429688 22.039062 14.6875 21.515625 15.621094 20.585938 C 16.554688 19.652344 17.074219 18.390625 17.078125 17.074219 C 17.078125 15.898438 16.609375 14.773438 15.777344 13.941406 C 14.949219 13.113281 13.820312 12.644531 12.648438 12.644531 C 11.613281 12.644531 10.625 13.054688 9.894531 13.785156 C 9.164062 14.515625 8.753906 15.503906 8.753906 16.539062 C 8.753906 17.429688 9.105469 18.28125 9.738281 18.910156 C 10.367188 19.539062 11.21875 19.894531 12.109375 19.894531 C 12.855469 19.894531 13.574219 19.597656 14.101562 19.066406 C 14.632812 18.539062 14.929688 17.820312 14.929688 17.074219 C 14.929688 16.46875 14.6875 15.886719 14.261719 15.460938 C 13.832031 15.03125 13.25 14.792969 12.648438 14.792969 C 12.183594 14.792969 11.738281 14.976562 11.414062 15.304688 C 11.085938 15.628906 10.902344 16.074219 10.902344 16.539062 C 10.902344 16.859375 11.027344 17.164062 11.253906 17.390625 C 11.480469 17.617188 11.789062 17.746094 12.109375 17.746094 C 12.285156 17.746094 12.457031 17.675781 12.585938 17.550781 C 12.710938 17.421875 12.78125 17.25 12.78125 17.074219 C 12.78125 17.039062 12.765625 17.003906 12.742188 16.980469 C 12.714844 16.957031 12.683594 16.941406 12.648438 16.941406 C 12.539062 16.941406 12.4375 16.898438 12.363281 16.820312 C 12.285156 16.746094 12.242188 16.644531 12.242188 16.539062 C 12.242188 16.429688 12.285156 16.328125 12.363281 16.253906 C 12.4375 16.175781 12.539062 16.132812 12.648438 16.132812 C 12.898438 16.132812 13.132812 16.230469 13.3125 16.410156 C 13.488281 16.585938 13.585938 16.824219 13.585938 17.074219 C 13.585938 17.464844 13.429688 17.839844 13.152344 18.117188 C 12.875 18.394531 12.5 18.550781 12.109375 18.550781 C 11.574219 18.550781 11.0625 18.335938 10.683594 17.960938 C 10.308594 17.582031 10.09375 17.070312 10.09375 16.539062 C 10.09375 15.859375 10.363281 15.210938 10.84375 14.734375 C 11.320312 14.253906 11.96875 13.984375 12.648438 13.984375 C 13.464844 13.984375 14.25 14.3125 14.828125 14.890625 C 15.410156 15.472656 15.734375 16.257812 15.734375 17.074219 C 15.734375 18.035156 15.351562 18.957031 14.671875 19.636719 C 13.992188 20.316406 13.070312 20.699219 12.109375 20.699219 C 11.003906 20.699219 9.949219 20.261719 9.167969 19.480469 C 8.386719 18.699219 7.945312 17.640625 7.945312 16.539062 C 7.945312 15.292969 8.445312 14.097656 9.328125 13.21875 C 10.207031 12.335938 11.402344 11.835938 12.648438 11.835938 C 14.035156 11.839844 15.367188 12.390625 16.347656 13.371094 C 17.332031 14.355469 17.878906 15.6875 17.882812 17.074219 C 17.878906 18.605469 17.273438 20.074219 16.191406 21.15625 C 15.109375 22.238281 13.640625 22.84375 12.109375 22.847656 C 10.4375 22.84375 8.832031 22.179688 7.648438 21 C 6.464844 19.816406 5.800781 18.210938 5.796875 16.539062 C 5.800781 14.722656 6.523438 12.980469 7.804688 11.695312 C 9.089844 10.414062 10.832031 9.691406 12.648438 9.6875 C 14.605469 9.691406 16.484375 10.46875 17.863281 11.855469 C 19.25 13.238281 20.027344 15.113281 20.03125 17.074219 Z M 20.03125 17.074219 "/>
</g>
</svg>
