<?xml version="1.0" encoding="UTF-8"?>
<svg xmlns="http://www.w3.org/2000/svg" xmlns:xlink="http://www.w3.org/1999/xlink" width="64px" height="64px" viewBox="0 0 32 32" version="1.1">
<g id="surface1">
<path style=" stroke:none;fill-rule:nonzero;fill:rgb(15.294118%,65.098039%,55.294118%);fill-opacity:0.701961;" d="M 5 0 L 27 0 C 29.761719 0 32 2.238281 32 5 L 32 27 C 32 29.761719 29.761719 32 27 32 L 5 32 C 2.238281 32 0 29.761719 0 27 L 0 5 C 0 2.238281 2.238281 0 5 0 Z M 5 0 "/>
<path style=" stroke:none;fill-rule:nonzero;fill:rgb(100%,100%,100%);fill-opacity:1;" d="M 7.75 6.375 L 6.375 6.375 L 6.375 24.25 C 6.375 24.613281 6.519531 24.964844 6.777344 25.222656 C 7.035156 25.480469 7.386719 25.625 7.75 25.625 L 25.625 25.625 L 25.625 24.25 L 7.75 24.25 Z M 7.75 6.375 "/>
<path style=" stroke:none;fill-rule:nonzero;fill:rgb(100%,100%,100%);fill-opacity:1;" d="M 25.625 11.1875 L 20.8125 11.1875 L 20.8125 12.5625 L 23.28125 12.5625 L 18.0625 17.78125 L 15.113281 14.824219 C 15.050781 14.761719 14.972656 14.707031 14.890625 14.675781 C 14.804688 14.640625 14.714844 14.621094 14.625 14.621094 C 14.535156 14.621094 14.445312 14.640625 14.359375 14.675781 C 14.277344 14.707031 14.199219 14.761719 14.136719 14.824219 L 9.125 19.84375 L 10.09375 20.8125 L 14.625 16.28125 L 17.574219 19.238281 C 17.636719 19.300781 17.714844 19.355469 17.796875 19.386719 C 17.882812 19.421875 17.972656 19.441406 18.0625 19.441406 C 18.152344 19.441406 18.242188 19.421875 18.328125 19.386719 C 18.410156 19.355469 18.488281 19.300781 18.550781 19.238281 L 24.25 13.53125 L 24.25 16 L 25.625 16 Z M 25.625 11.1875 "/>
</g>
</svg>
