<?xml version="1.0" encoding="UTF-8"?>
<svg xmlns="http://www.w3.org/2000/svg" xmlns:xlink="http://www.w3.org/1999/xlink" width="64px" height="64px" viewBox="0 0 32 32" version="1.1">
<g id="surface1">
<path style=" stroke:none;fill-rule:nonzero;fill:rgb(32.941176%,65.882353%,36.862745%);fill-opacity:0.701961;" d="M 5 0 L 27 0 C 29.761719 0 32 2.238281 32 5 L 32 27 C 32 29.761719 29.761719 32 27 32 L 5 32 C 2.238281 32 0 29.761719 0 27 L 0 5 C 0 2.238281 2.238281 0 5 0 Z M 5 0 "/>
<path style=" stroke:none;fill-rule:nonzero;fill:rgb(100%,100%,100%);fill-opacity:1;" d="M 20.277344 7.445312 L 11.722656 7.445312 C 11.398438 7.445312 11.085938 7.574219 10.859375 7.800781 C 10.628906 8.03125 10.5 8.34375 10.5 8.667969 L 10.5 23.332031 C 10.5 23.65625 10.628906 23.96875 10.859375 24.199219 C 11.085938 24.425781 11.398438 24.554688 11.722656 24.554688 L 20.277344 24.554688 C 20.601562 24.554688 20.914062 24.425781 21.140625 24.199219 C 21.371094 23.96875 21.5 23.65625 21.5 23.332031 L 21.5 8.667969 C 21.5 8.34375 21.371094 8.03125 21.140625 7.800781 C 20.914062 7.574219 20.601562 7.445312 20.277344 7.445312 Z M 11.722656 8.667969 L 20.277344 8.667969 L 20.277344 19.667969 L 11.722656 19.667969 Z M 11.722656 23.332031 L 11.722656 20.890625 L 20.277344 20.890625 L 20.277344 23.332031 Z M 11.722656 23.332031 "/>
<path style=" stroke:none;fill-rule:nonzero;fill:rgb(100%,100%,100%);fill-opacity:1;" d="M 15.390625 21.5 L 16.609375 21.5 L 16.609375 22.722656 L 15.390625 22.722656 Z M 15.390625 21.5 "/>
</g>
</svg>
