<?xml version="1.0" encoding="UTF-8"?>
<svg xmlns="http://www.w3.org/2000/svg" xmlns:xlink="http://www.w3.org/1999/xlink" width="64px" height="64px" viewBox="0 0 32 32" version="1.1">
<g id="surface1">
<path style=" stroke:none;fill-rule:nonzero;fill:rgb(41.568627%,67.058824%,28.235294%);fill-opacity:0.701961;" d="M 5 0 L 27 0 C 29.761719 0 32 2.238281 32 5 L 32 27 C 32 29.761719 29.761719 32 27 32 L 5 32 C 2.238281 32 0 29.761719 0 27 L 0 5 C 0 2.238281 2.238281 0 5 0 Z M 5 0 "/>
<path style="fill:none;stroke-width:2;stroke-linecap:butt;stroke-linejoin:miter;stroke:rgb(100%,100%,100%);stroke-opacity:1;stroke-miterlimit:4;" d="M 35.664062 15.992188 C 35.664062 14.710938 34.625 13.664062 33.34375 13.664062 L 30.664062 13.664062 C 29.375 13.664062 28.335938 14.710938 28.335938 15.992188 C 28.335938 17.054688 27.609375 17.960938 26.617188 18.351562 C 26.460938 18.414062 26.304688 18.476562 26.15625 18.546875 C 25.179688 18.96875 24.023438 18.835938 23.273438 18.085938 C 22.835938 17.65625 22.242188 17.40625 21.625 17.40625 C 21.015625 17.40625 20.421875 17.65625 19.984375 18.085938 L 18.085938 19.984375 C 17.65625 20.421875 17.40625 21.015625 17.40625 21.625 C 17.40625 22.242188 17.65625 22.835938 18.085938 23.273438 C 18.84375 24.023438 18.96875 25.179688 18.546875 26.15625 C 18.476562 26.3125 18.414062 26.460938 18.351562 26.617188 C 17.960938 27.609375 17.054688 28.335938 15.992188 28.335938 C 14.710938 28.335938 13.664062 29.375 13.664062 30.65625 L 13.664062 33.34375 C 13.664062 34.625 14.710938 35.664062 15.992188 35.664062 C 17.054688 35.664062 17.960938 36.390625 18.351562 37.382812 C 18.414062 37.539062 18.476562 37.695312 18.546875 37.84375 C 18.96875 38.820312 18.835938 39.976562 18.085938 40.726562 C 17.65625 41.164062 17.40625 41.757812 17.40625 42.375 C 17.40625 42.984375 17.65625 43.578125 18.085938 44.015625 L 19.984375 45.914062 C 20.421875 46.34375 21.015625 46.59375 21.625 46.59375 C 22.242188 46.59375 22.835938 46.34375 23.273438 45.914062 C 24.023438 45.15625 25.179688 45.03125 26.15625 45.453125 C 26.304688 45.523438 26.460938 45.585938 26.617188 45.648438 C 27.609375 46.039062 28.335938 46.945312 28.335938 48.007812 C 28.335938 49.289062 29.375 50.335938 30.65625 50.335938 L 33.34375 50.335938 C 34.625 50.335938 35.664062 49.289062 35.664062 48.007812 C 35.664062 46.945312 36.390625 46.039062 37.382812 45.648438 C 37.539062 45.585938 37.695312 45.523438 37.84375 45.453125 C 38.820312 45.03125 39.976562 45.164062 40.726562 45.914062 C 40.9375 46.125 41.195312 46.296875 41.476562 46.414062 C 41.765625 46.53125 42.0625 46.59375 42.367188 46.59375 C 42.679688 46.59375 42.976562 46.53125 43.257812 46.414062 C 43.546875 46.296875 43.796875 46.125 44.015625 45.914062 L 45.914062 44.015625 C 46.34375 43.578125 46.59375 42.984375 46.59375 42.375 C 46.59375 41.757812 46.34375 41.164062 45.914062 40.726562 C 45.15625 39.976562 45.03125 38.820312 45.453125 37.84375 C 45.523438 37.695312 45.585938 37.539062 45.648438 37.382812 C 46.039062 36.390625 46.945312 35.664062 48.007812 35.664062 C 49.289062 35.664062 50.335938 34.625 50.335938 33.34375 L 50.335938 30.664062 C 50.335938 29.375 49.289062 28.335938 48.007812 28.335938 C 46.945312 28.335938 46.039062 27.609375 45.648438 26.625 C 45.585938 26.46875 45.523438 26.3125 45.453125 26.15625 C 45.03125 25.1875 45.164062 24.023438 45.914062 23.273438 C 46.34375 22.835938 46.59375 22.25 46.59375 21.632812 C 46.59375 21.015625 46.34375 20.421875 45.914062 19.984375 L 44.015625 18.09375 C 43.578125 17.65625 42.984375 17.40625 42.375 17.40625 C 41.757812 17.40625 41.164062 17.65625 40.726562 18.09375 C 39.976562 18.84375 38.820312 18.96875 37.84375 18.546875 C 37.6875 18.476562 37.539062 18.414062 37.382812 18.351562 C 36.390625 17.960938 35.664062 17.054688 35.664062 15.992188 Z M 35.664062 15.992188 " transform="matrix(0.5,0,0,0.5,0,0)"/>
<path style="fill:none;stroke-width:2;stroke-linecap:butt;stroke-linejoin:miter;stroke:rgb(100%,100%,100%);stroke-opacity:1;stroke-miterlimit:4;" d="M 39.335938 32 C 39.335938 33.945312 38.5625 35.8125 37.1875 37.1875 C 35.8125 38.5625 33.945312 39.335938 32 39.335938 C 30.054688 39.335938 28.1875 38.5625 26.8125 37.1875 C 25.4375 35.8125 24.664062 33.945312 24.664062 32 C 24.664062 30.054688 25.4375 28.1875 26.8125 26.8125 C 28.1875 25.4375 30.054688 24.664062 32 24.664062 C 33.945312 24.664062 35.8125 25.4375 37.1875 26.8125 C 38.5625 28.1875 39.335938 30.054688 39.335938 32 Z M 39.335938 32 " transform="matrix(0.5,0,0,0.5,0,0)"/>
</g>
</svg>
